<svg width="28" height="28" viewBox="0 0 28 28" fill="none" xmlns="http://www.w3.org/2000/svg">
<path d="M8.75 14.875H19.25" stroke="white" stroke-width="1.75" stroke-linecap="round" stroke-linejoin="round"/>
<path d="M5.25 10.5V7.875C5.25 6.94674 5.61875 6.0565 6.27513 5.40013C6.9315 4.74375 7.82174 4.375 8.75 4.375H19.25C20.1783 4.375 21.0685 4.74375 21.7249 5.40013C22.3813 6.0565 22.75 6.94674 22.75 7.875V10.5" stroke="white" stroke-width="1.75" stroke-linecap="round" stroke-linejoin="round"/>
<path d="M8.75 18.375V14C8.75 13.3078 8.54473 12.6311 8.16015 12.0555C7.77556 11.4799 7.22893 11.0313 6.58939 10.7664C5.94985 10.5015 5.24612 10.4322 4.56719 10.5673C3.88825 10.7023 3.26461 11.0356 2.77513 11.5251C2.28564 12.0146 1.9523 12.6383 1.81725 13.3172C1.6822 13.9961 1.75152 14.6999 2.01642 15.3394C2.28133 15.9789 2.72993 16.5256 3.30551 16.9101C3.88108 17.2947 4.55777 17.5 5.25 17.5V21.875C5.25 22.1071 5.34219 22.3296 5.50628 22.4937C5.67038 22.6578 5.89294 22.75 6.125 22.75H21.875C22.1071 22.75 22.3296 22.6578 22.4937 22.4937C22.6578 22.3296 22.75 22.1071 22.75 21.875V17.5C23.4422 17.5 24.1189 17.2947 24.6945 16.9101C25.2701 16.5256 25.7187 15.9789 25.9836 15.3394C26.2485 14.6999 26.3178 13.9961 26.1828 13.3172C26.0477 12.6383 25.7144 12.0146 25.2249 11.5251C24.7354 11.0356 24.1118 10.7023 23.4328 10.5673C22.7539 10.4322 22.0502 10.5015 21.4106 10.7664C20.7711 11.0313 20.2244 11.4799 19.8399 12.0555C19.4553 12.6311 19.25 13.3078 19.25 14V18.375" stroke="white" stroke-width="1.75" stroke-linecap="round" stroke-linejoin="round"/>
</svg>
