<svg width="24" height="24" viewBox="0 0 24 24" fill="none" xmlns="http://www.w3.org/2000/svg">
<path d="M5.26846 9.75005C5.26721 8.8609 5.44188 7.98029 5.78242 7.15895C6.12296 6.3376 6.62263 5.59174 7.25265 4.96432C7.88268 4.33691 8.63061 3.84035 9.45337 3.50323C10.2761 3.16611 11.1575 2.9951 12.0466 3.00004C15.7591 3.02817 18.731 6.11254 18.731 9.83442V10.5C18.731 13.8563 19.4341 15.8063 20.0528 16.875C20.1185 16.9889 20.1532 17.118 20.1533 17.2494C20.1534 17.3808 20.119 17.51 20.0535 17.6239C19.988 17.7378 19.8937 17.8326 19.78 17.8986C19.6664 17.9646 19.5374 17.9996 19.406 18H4.59346C4.46203 17.9996 4.33303 17.9646 4.21938 17.8986C4.10574 17.8326 4.01143 17.7378 3.94592 17.6239C3.88041 17.51 3.84598 17.3808 3.8461 17.2494C3.84622 17.118 3.88087 16.9889 3.94658 16.875C4.56533 15.8063 5.26846 13.8563 5.26846 10.5V9.75005Z" stroke="#2E335B" stroke-width="1.5" stroke-linecap="round" stroke-linejoin="round"/>
<path d="M9 18V18.75C9 19.5456 9.31607 20.3087 9.87868 20.8713C10.4413 21.4339 11.2044 21.75 12 21.75C12.7956 21.75 13.5587 21.4339 14.1213 20.8713C14.6839 20.3087 15 19.5456 15 18.75V18" stroke="#2E335B" stroke-width="1.5" stroke-linecap="round" stroke-linejoin="round"/>
<circle cx="17" cy="6" r="3.5" fill="#E34255" stroke="#EEEDEB"/>
</svg>
