<svg width="28" height="28" viewBox="0 0 28 28" fill="none" xmlns="http://www.w3.org/2000/svg">
<path d="M22.75 6.125H5.25C4.2835 6.125 3.5 6.9085 3.5 7.875V20.125C3.5 21.0915 4.2835 21.875 5.25 21.875H22.75C23.7165 21.875 24.5 21.0915 24.5 20.125V7.875C24.5 6.9085 23.7165 6.125 22.75 6.125Z" stroke="#2E335B" stroke-width="1.5" stroke-linecap="round" stroke-linejoin="round"/>
<path d="M3.5 13.125H9.7125C9.91401 13.1239 10.1096 13.1932 10.2654 13.3211C10.4212 13.4489 10.5274 13.6272 10.5656 13.825C10.7327 14.612 11.165 15.3177 11.7902 15.8241C12.4154 16.3304 13.1955 16.6067 14 16.6067C14.8045 16.6067 15.5846 16.3304 16.2098 15.8241C16.835 15.3177 17.2673 14.612 17.4344 13.825C17.4726 13.6272 17.5788 13.4489 17.7346 13.3211C17.8904 13.1932 18.086 13.1239 18.2875 13.125H24.5" stroke="#2E335B" stroke-width="1.5" stroke-linecap="round" stroke-linejoin="round"/>
<path d="M3.5 9.625H24.5" stroke="#2E335B" stroke-width="1.5" stroke-linecap="round" stroke-linejoin="round"/>
</svg>
