<svg width="28" height="28" viewBox="0 0 28 28" fill="none" xmlns="http://www.w3.org/2000/svg">
<path d="M3.72973 15.3891C2.74903 13.7368 2.40529 11.7833 2.76306 9.89556C3.12083 8.00778 4.15551 6.31556 5.67276 5.13671C7.19002 3.95787 9.08546 3.37352 11.0031 3.4934C12.9207 3.61328 14.7287 4.42914 16.0873 5.78777C17.4459 7.14639 18.2618 8.9543 18.3817 10.8719C18.5015 12.7896 17.9172 14.685 16.7383 16.2023C15.5595 17.7195 13.8673 18.7542 11.9795 19.112C10.0917 19.4698 8.13824 19.126 6.48598 18.1453L3.76255 18.9219C3.65034 18.9534 3.53175 18.9545 3.41897 18.925C3.3062 18.8956 3.20331 18.8366 3.12089 18.7542C3.03847 18.6717 2.97949 18.5688 2.95001 18.4561C2.92053 18.3433 2.92162 18.2247 2.95317 18.1125L3.72973 15.3891Z" stroke="#2E335B" stroke-width="1.5" stroke-linecap="round" stroke-linejoin="round"/>
<path d="M10.0739 19.2391C10.4593 20.3381 11.0841 21.3378 11.9031 22.166C12.7221 22.9941 13.7148 23.63 14.8095 24.0277C15.9042 24.4254 17.0735 24.5749 18.2331 24.4656C19.3926 24.3562 20.5134 23.9906 21.5145 23.3953V23.3953L24.2379 24.1719C24.3501 24.2034 24.4687 24.2045 24.5815 24.175C24.6943 24.1456 24.7971 24.0866 24.8796 24.0041C24.962 23.9217 25.021 23.8188 25.0505 23.7061C25.0799 23.5933 25.0788 23.4747 25.0473 23.3625L24.2707 20.6391C24.964 19.4753 25.345 18.1522 25.3766 16.798C25.4083 15.4438 25.0896 14.1043 24.4515 12.9095C23.8133 11.7146 22.8773 10.7048 21.7343 9.978C20.5912 9.25118 19.2797 8.83194 17.927 8.76093" stroke="#2E335B" stroke-width="1.5" stroke-linecap="round" stroke-linejoin="round"/>
</svg>
