<svg width="24" height="24" viewBox="0 0 24 24" fill="none" xmlns="http://www.w3.org/2000/svg">
<path d="M17.0465 22.4634C16.6433 22.3002 16.3554 21.9355 16.2882 21.5036C16.2402 21.254 16.2882 21.0812 16.6721 20.3902C18.1119 17.7986 18.851 14.871 18.8126 11.9051C18.851 9.02559 18.1503 6.21324 16.7681 3.68885C16.5665 3.26651 16.3842 2.86338 16.2306 2.43145C16.2882 2.06671 16.4706 1.73076 16.7681 1.52919C17.2 1.29883 17.7279 1.34682 18.1215 1.61558C18.3902 1.96113 18.6206 2.30667 18.8126 2.7098C19.8492 4.70628 20.5499 6.81794 20.8954 9.02559C21.1162 10.7629 21.145 12.529 20.9818 14.2759C20.6843 16.522 20.022 18.6912 19.0045 20.7165C18.3902 21.9451 18.0447 22.4634 17.68 22.4634C17.6032 22.4634 17.5168 22.4634 17.44 22.4634C17.3056 22.4634 17.1808 22.4634 17.0465 22.4634ZM12.8615 20.3422C12.3144 20.1886 11.9689 19.6319 12.0841 19.0752C12.0841 18.96 12.3816 18.4321 12.6504 17.8946C13.783 15.7157 14.2725 13.2585 14.0517 10.8109C13.9174 9.05438 13.4086 7.34586 12.5736 5.80051C11.9689 4.5911 11.9305 4.39913 12.2856 3.88082C12.708 3.41049 13.4086 3.3433 13.927 3.74644C14.6181 4.76387 15.1652 5.87729 15.5683 7.04831C16.7969 10.6861 16.6049 14.6503 15.0308 18.1441C14.2245 19.9582 13.6582 20.5437 12.8615 20.2942V20.3422ZM8.54223 18.2017C8.19669 18.0481 7.93753 17.741 7.84154 17.3762C7.84154 17.1843 7.84154 16.9347 8.27347 16.1668C9.70364 13.5753 9.70364 10.427 8.27347 7.83538C7.64957 6.62597 7.64957 6.37641 8.15829 5.91569C8.34066 5.70452 8.60942 5.59894 8.89737 5.63733C9.51167 5.63733 9.85722 5.93488 10.3755 7.01951C11.1914 8.51687 11.6137 10.1966 11.6041 11.9051C11.6425 13.6424 11.2202 15.3702 10.3851 16.8963C9.86682 17.9042 9.60766 18.1441 9.08934 18.2305C8.90697 18.2497 8.715 18.2305 8.54223 18.1441V18.2017ZM4.50128 16.1572C4.18453 16.0037 3.93497 15.7445 3.81019 15.4086C3.71421 15.0726 3.81019 14.7847 4.19413 14.1704C4.67405 13.5177 4.90442 12.7114 4.85642 11.9051C4.92361 11.0893 4.70285 10.283 4.23253 9.61109C4.06935 9.37113 3.93497 9.11197 3.81019 8.85281C3.70461 8.24811 4.10775 7.6722 4.77004 7.55702C5.28836 7.46104 5.6531 7.6818 6.13302 8.41129C7.52479 10.5325 7.52479 13.2681 6.13302 15.3894C5.6435 16.1284 5.08679 16.3492 4.51088 16.1572H4.50128Z" fill="white"/>
</svg>
