<svg width="284" height="184" viewBox="0 0 284 184" fill="none" xmlns="http://www.w3.org/2000/svg">
<g style="mix-blend-mode:overlay" opacity="0.5">
<path d="M0 0.820374L87.4669 90.0879H0V0.820374Z" fill="#D9D9D9"/>
<path d="M198.964 183.461L283.546 90.0879H198.964V183.461Z" fill="#D9D9D9"/>
<path opacity="0.25" d="M87.4678 90.0878L0.000900269 0.820343H87.4678V90.0878Z" fill="#D9D9D9"/>
<path opacity="0.5" d="M283.546 90.0878L198.964 183.461H283.546V90.0878Z" fill="#E6E6E6"/>
<rect x="87.4678" y="0.820374" width="27.8741" height="89.2675" fill="#D9D9D9"/>
<rect opacity="0.5" x="198.964" y="90.0878" width="31.1242" height="111.495" transform="rotate(90 198.964 90.0878)" fill="#D9D9D9"/>
<rect opacity="0.25" x="198.964" y="121.212" width="31.1242" height="111.495" transform="rotate(90 198.964 121.212)" fill="#D9D9D9"/>
<rect opacity="0.75" x="198.964" y="152.336" width="31.1242" height="111.495" transform="rotate(90 198.964 152.336)" fill="#D9D9D9"/>
<path opacity="0.5" d="M156.672 90.0879C151.245 90.0879 145.87 88.9334 140.856 86.6903C135.841 84.4473 131.285 81.1596 127.447 77.015C123.609 72.8703 120.565 67.9499 118.488 62.5347C116.411 57.1195 115.342 51.3155 115.342 45.4541C115.342 39.5927 116.411 33.7887 118.488 28.3735C120.565 22.9583 123.609 18.0379 127.447 13.8933C131.285 9.74867 135.841 6.46097 140.856 4.21792C145.87 1.97486 151.245 0.820373 156.672 0.820374V90.0879Z" fill="#D9D9D9"/>
<path opacity="0.5" d="M283.546 90.0879C277.992 90.0879 272.493 88.9334 267.362 86.6903C262.231 84.4473 257.569 81.1596 253.641 77.015C249.714 72.8703 246.599 67.9499 244.474 62.5347C242.348 57.1195 241.255 51.3155 241.255 45.4541C241.255 39.5927 242.348 33.7887 244.474 28.3735C246.599 22.9583 249.714 18.0379 253.641 13.8933C257.569 9.74867 262.231 6.46097 267.362 4.21792C272.493 1.97486 277.992 0.820373 283.546 0.820374V90.0879Z" fill="#D9D9D9"/>
<path d="M198.964 90.0879C193.41 90.0879 187.91 88.9334 182.779 86.6903C177.648 84.4473 172.986 81.1596 169.059 77.015C165.132 72.8703 162.017 67.9499 159.891 62.5347C157.766 57.1195 156.672 51.3155 156.672 45.4541C156.672 39.5927 157.766 33.7887 159.891 28.3735C162.017 22.9583 165.132 18.0379 169.059 13.8933C172.986 9.74867 177.648 6.46097 182.779 4.21792C187.91 1.97486 193.41 0.820373 198.964 0.820374V90.0879Z" fill="#D9D9D9"/>
<path opacity="0.25" d="M202.182 72.8109C200.057 78.2884 198.963 84.1591 198.963 90.0879H241.255V44.9411C235.701 44.9411 230.202 46.1088 225.071 48.3777C219.939 50.6465 215.277 53.972 211.35 58.1643C207.423 62.3565 204.308 67.3335 202.182 72.8109Z" fill="#D9D9D9"/>
<path d="M202.182 28.0568C200.057 33.4098 198.963 39.1471 198.963 44.9411H241.255V0.820374C235.701 0.820374 230.202 1.96159 225.071 4.17886C219.939 6.39614 215.277 9.64604 211.35 13.743C207.423 17.84 204.308 22.7038 202.182 28.0568Z" fill="#D9D9D9"/>
<path opacity="0.3" d="M43.733 90.088C49.4762 90.088 55.1631 91.2956 60.469 93.6418C65.775 95.988 70.5961 99.4269 74.6571 103.762C78.7181 108.097 81.9395 113.244 84.1373 118.908C86.3351 124.572 87.4663 130.643 87.4663 136.774C87.4663 142.905 86.3351 148.976 84.1373 154.64C81.9395 160.305 78.7181 165.451 74.6571 169.787C70.5961 174.122 65.775 177.561 60.469 179.907C55.1631 182.253 49.4762 183.461 43.733 183.461L43.733 90.088Z" fill="#D9D9D9"/>
<path d="M43.733 90.088C37.9899 90.088 32.303 91.2956 26.9971 93.6418C21.6911 95.988 16.87 99.4269 12.809 103.762C8.74796 108.097 5.52659 113.244 3.32879 118.908C1.13099 124.572 -0.000205644 130.643 -0.000206128 136.774C-0.000207552 154.841 -0.000205994 183.461 -0.000205994 183.461C-0.000205994 183.461 37.9899 183.461 43.733 183.461L43.733 90.088Z" fill="#D9D9D9"/>
</g>
</svg>
