<svg width="41" height="14" viewBox="0 0 41 14" fill="none" xmlns="http://www.w3.org/2000/svg">
<path d="M21.5306 4.67806C21.5079 6.4719 23.1293 7.473 24.3507 8.06815C25.6057 8.67888 26.0272 9.07046 26.0224 9.61651C26.0129 10.4524 25.0213 10.8212 24.0933 10.8356C22.4743 10.8607 21.533 10.3985 20.7846 10.0488L20.2014 12.7779C20.9523 13.124 22.3425 13.4257 23.7843 13.4389C27.1684 13.4389 29.3826 11.7684 29.3946 9.17823C29.4077 5.89112 24.8477 5.7091 24.8788 4.23977C24.8896 3.79431 25.3147 3.3189 26.2464 3.19796C26.7074 3.13688 27.9803 3.09018 29.4233 3.75479L29.9897 1.11432C29.2138 0.831714 28.2162 0.561081 26.9744 0.561081C23.7891 0.561081 21.5486 2.25433 21.5306 4.67806ZM35.4323 0.788604C34.8144 0.788604 34.2935 1.14905 34.0612 1.70229L29.2269 13.2449H32.6086L33.2816 11.3852H37.4142L37.8046 13.2449H40.7851L38.1842 0.788604H35.4323ZM35.9053 4.15355L36.8813 8.83096H34.2085L35.9053 4.15355ZM17.4304 0.788604L14.7648 13.2449H17.9873L20.6517 0.788604H17.4304ZM12.6632 0.788604L9.30905 9.26684L7.95229 2.05795C7.79302 1.25323 7.16434 0.788604 6.4662 0.788604H0.982889L0.90625 1.15025C2.03189 1.39453 3.31081 1.78851 4.08559 2.21003C4.5598 2.46749 4.69511 2.69262 4.85079 3.30453L7.4206 13.2449H10.8263L16.0473 0.788604H12.6632Z" fill="#2E335B"/>
</svg>
