<svg width="110" height="31" viewBox="0 0 110 31" fill="none" xmlns="http://www.w3.org/2000/svg">
<path d="M53.4158 21.3483C51.8202 22.9289 49.8782 23.7192 47.5901 23.7192C45.302 23.7192 43.36 22.9289 41.7644 21.3483C40.1687 19.7676 39.3708 17.8182 39.3708 15.5C39.3708 13.1817 40.1687 11.2323 41.7644 9.65164C43.36 8.07101 45.302 7.2807 47.5901 7.2807C49.8782 7.2807 51.8202 8.07101 53.4158 9.65164C55.0115 11.2323 55.8094 13.1817 55.8094 15.5C55.8094 17.8182 55.0115 19.7676 53.4158 21.3483ZM44.2934 18.887C45.1815 19.7601 46.2804 20.1967 47.5901 20.1967C48.8998 20.1967 49.9911 19.7601 50.8643 18.887C51.7524 18.0139 52.1965 16.8849 52.1965 15.5C52.1965 14.115 51.7524 12.986 50.8643 12.1129C49.9911 11.2398 48.8998 10.8032 47.5901 10.8032C46.2804 10.8032 45.1815 11.2398 44.2934 12.1129C43.4203 12.986 42.9837 14.115 42.9837 15.5C42.9837 16.8849 43.4203 18.0139 44.2934 18.887Z" fill="#2E335B"/>
<path d="M64.3467 11.7968C65.551 11.7968 66.552 12.2107 67.3499 13.0387C68.1627 13.8666 68.5692 15.0107 68.5692 16.4709V23.4031H65.1821V16.9677C65.1821 16.3053 64.994 15.801 64.6176 15.4548C64.2563 15.0935 63.7897 14.9129 63.2176 14.9129C62.5703 14.9129 62.0585 15.1086 61.6822 15.5C61.3058 15.8913 61.1177 16.4709 61.1177 17.2386V23.4031H57.7306V12.1129H61.1177V13.1742C61.7951 12.2559 62.8714 11.7968 64.3467 11.7968Z" fill="#2E335B"/>
<path d="M77.6467 11.7968C79.137 11.7968 80.409 12.3763 81.4628 13.5355C82.5165 14.6795 83.0434 16.087 83.0434 17.758C83.0434 19.4289 82.5165 20.844 81.4628 22.0031C80.409 23.1472 79.137 23.7192 77.6467 23.7192C76.2015 23.7192 75.08 23.2601 74.2822 22.3418V27.9191H70.8951V12.1129H74.2822V13.1742C75.08 12.2559 76.2015 11.7968 77.6467 11.7968ZM75.0274 19.7676C75.5392 20.2644 76.1865 20.5128 76.9693 20.5128C77.7521 20.5128 78.3918 20.2644 78.8886 19.7676C79.4004 19.2709 79.6563 18.601 79.6563 17.758C79.6563 16.915 79.4004 16.2451 78.8886 15.7483C78.3918 15.2516 77.7521 15.0032 76.9693 15.0032C76.1865 15.0032 75.5392 15.2516 75.0274 15.7483C74.5306 16.2451 74.2822 16.915 74.2822 17.758C74.2822 18.601 74.5306 19.2709 75.0274 19.7676Z" fill="#2E335B"/>
<path d="M93.1604 12.1129H96.5475V23.4031H93.1604V22.3418C92.3626 23.2601 91.2411 23.7192 89.796 23.7192C88.3057 23.7192 87.0336 23.1472 85.9799 22.0031C84.9261 20.844 84.3993 19.4289 84.3993 17.758C84.3993 16.087 84.9261 14.6795 85.9799 13.5355C87.0336 12.3763 88.3057 11.7968 89.796 11.7968C91.2411 11.7968 92.3626 12.2559 93.1604 13.1742V12.1129ZM88.5315 19.7676C89.0282 20.2644 89.6755 20.5128 90.4734 20.5128C91.2712 20.5128 91.9185 20.2644 92.4153 19.7676C92.9121 19.2709 93.1604 18.601 93.1604 17.758C93.1604 16.915 92.9121 16.2451 92.4153 15.7483C91.9185 15.2516 91.2712 15.0032 90.4734 15.0032C89.6755 15.0032 89.0282 15.2516 88.5315 15.7483C88.0347 16.2451 87.7863 16.915 87.7863 17.758C87.7863 18.601 88.0347 19.2709 88.5315 19.7676Z" fill="#2E335B"/>
<path d="M106.145 12.1129H109.758L105.897 23.0644C105.265 24.8407 104.429 26.1127 103.39 26.8805C102.367 27.6482 101.057 27.9944 99.4614 27.9191V24.7579C100.244 24.7579 100.846 24.6149 101.268 24.3289C101.689 24.0579 102.028 23.5762 102.284 22.8837L97.7905 12.1129H101.516L104.023 19.0225L106.145 12.1129Z" fill="#2E335B"/>
<path fill-rule="evenodd" clip-rule="evenodd" d="M30.0732 17.4731C29.8949 18.8368 29.593 20.0296 29.1207 21.2369C27.4485 25.5115 23.9276 28.795 19.545 30.1669C19.0989 30.3066 18.5167 30.4628 18.4424 30.4628C18.3896 30.4628 18.3316 30.3709 17.1416 28.3976C16.591 27.4847 16.0762 26.6335 15.9976 26.5061C15.919 26.3787 15.4725 25.6404 15.0055 24.8655C14.5385 24.0905 14.0857 23.341 13.9994 23.1998C13.9131 23.0587 13.5335 22.4297 13.1559 21.8021C12.7783 21.1745 12.4565 20.6604 12.4407 20.6595C12.425 20.6585 12.4121 22.8871 12.4121 25.6118C12.4121 28.3365 12.4037 30.5743 12.3935 30.5846C12.3833 30.595 12.1902 30.5639 11.9644 30.5155C11.1399 30.339 10.5626 30.1702 9.79796 29.8819C4.84768 28.0158 1.25391 23.7265 0.242294 18.4768C0.0521462 17.4901 -0.000376467 16.875 -7.12375e-05 15.6395C0.000195835 14.649 0.0135072 14.361 0.0837683 13.8252C0.195072 12.9767 0.424928 11.8209 0.547065 11.4958L0.58559 11.3932L6.42256 11.3932C9.63291 11.3932 12.2595 11.379 12.2595 11.3617C12.2595 11.3443 11.9892 11.1767 11.6588 10.9893C10.9241 10.5725 9.27001 9.6331 7.82531 8.81222C7.23263 8.47549 6.24997 7.91714 5.64157 7.57149C5.03317 7.22589 4.24787 6.77953 3.89648 6.5796C3.54506 6.37968 3.25757 6.19752 3.25757 6.17478C3.25757 6.09375 3.81383 5.45824 4.41784 4.84913C5.61979 3.63698 6.90039 2.7126 8.42607 1.9558C10.0004 1.17487 11.3807 0.75673 13.2322 0.499831C13.7502 0.427953 14.0242 0.414906 15.044 0.413516C16.3273 0.411818 16.688 0.442352 17.8095 0.647602C20.6758 1.17217 23.4382 2.59189 25.5071 4.60378L25.9192 5.00451L25.847 5.13962C25.8073 5.21393 25.5809 5.65689 25.3438 6.12398C25.1066 6.59107 24.8058 7.18169 24.6753 7.43646C24.3955 7.98254 23.9345 8.88742 23.4169 9.90702C23.2121 10.3104 22.9288 10.8663 22.7872 11.1423C22.6457 11.4183 22.3537 11.9916 22.1383 12.4162C21.923 12.8408 21.64 13.3967 21.5094 13.6515C20.725 15.183 20.4203 15.7939 20.4409 15.7939C20.4537 15.7939 20.6736 15.6662 20.9296 15.5101C21.1856 15.3541 22.0816 14.8127 22.9208 14.3072C23.7599 13.8017 24.7383 13.211 25.095 12.9947C25.4516 12.7784 26.3871 12.2145 27.1738 11.7416C27.9605 11.2688 28.7563 10.7875 28.9421 10.672C29.1279 10.5566 29.2851 10.4675 29.2915 10.4741C29.2978 10.4807 29.364 10.6685 29.4385 10.8914C29.7331 11.7719 29.9825 12.9317 30.0903 13.9217C30.1802 14.7475 30.1801 14.7423 30.1666 15.8325C30.1572 16.5934 30.1333 17.0137 30.0732 17.4731ZM20.0314 15.6313C19.8583 15.5343 19.0987 15.1083 18.3435 14.6847C17.5882 14.261 16.0777 13.4143 14.9868 12.8031C13.8959 12.1919 12.886 11.6246 12.7425 11.5425C12.5991 11.4604 12.4661 11.3932 12.4469 11.3932C12.4096 11.3932 12.3962 20.4744 12.4334 20.5121C12.4539 20.5329 12.7937 20.3375 14.5291 19.3071C14.9697 19.0455 15.682 18.6233 16.1121 18.3687C17.0903 17.7896 18.2262 17.1167 19.2399 16.5158C19.67 16.2608 20.0948 16.01 20.1839 15.9583C20.2731 15.9067 20.3461 15.8517 20.3461 15.8361C20.3461 15.8205 20.2045 15.7283 20.0314 15.6313Z" fill="#2E335B"/>
<path fill-rule="evenodd" clip-rule="evenodd" d="M30.0732 17.4731C29.8949 18.8368 29.593 20.0296 29.1207 21.2369C27.4485 25.5115 23.9276 28.795 19.545 30.1669C19.0989 30.3066 18.5167 30.4628 18.4424 30.4628C18.3896 30.4628 18.3316 30.3709 17.1416 28.3976C16.591 27.4847 16.0762 26.6335 15.9976 26.5061C15.919 26.3787 15.4725 25.6404 15.0055 24.8655C14.5385 24.0905 14.0857 23.341 13.9994 23.1998C13.9131 23.0587 13.5335 22.4297 13.1559 21.8021C12.7783 21.1745 12.4565 20.6604 12.4407 20.6595C12.425 20.6585 12.4121 22.8871 12.4121 25.6118C12.4121 28.3365 12.4037 30.5743 12.3935 30.5846C12.3833 30.595 12.1902 30.5639 11.9644 30.5155C11.1399 30.339 10.5626 30.1702 9.79796 29.8819C4.84768 28.0158 1.25391 23.7265 0.242294 18.4768C0.0521462 17.4901 -0.000376467 16.875 -7.12375e-05 15.6395C0.000195835 14.649 0.0135072 14.361 0.0837683 13.8252C0.195072 12.9767 0.424928 11.8209 0.547065 11.4958L0.58559 11.3932L6.42256 11.3932C9.63291 11.3932 12.2595 11.379 12.2595 11.3617C12.2595 11.3443 11.9892 11.1767 11.6588 10.9893C10.9241 10.5725 9.27001 9.6331 7.82531 8.81222L5.64157 7.57149C5.03317 7.22589 4.24787 6.77953 3.89648 6.5796C3.54506 6.37968 3.25757 6.19752 3.25757 6.17478C3.25757 6.09375 3.81383 5.45824 4.41784 4.84913C5.61979 3.63698 6.90039 2.7126 8.42607 1.9558C10.0004 1.17487 11.3807 0.75673 13.2322 0.499831C13.7502 0.427953 14.0242 0.414906 15.044 0.413516C16.3273 0.411818 16.688 0.442352 17.8095 0.647602C20.6758 1.17217 23.4382 2.59189 25.5071 4.60378L25.9192 5.00451L25.847 5.13962C25.8073 5.21393 25.5809 5.65689 25.3438 6.12398C25.1066 6.59107 24.8058 7.18169 24.6753 7.43646C24.3955 7.98254 23.9345 8.88742 23.4169 9.90702C23.2121 10.3104 22.9288 10.8663 22.7872 11.1423C22.6457 11.4183 22.3537 11.9916 22.1383 12.4162C21.923 12.8408 21.64 13.3967 21.5094 13.6515C20.725 15.183 20.4203 15.7939 20.4409 15.7939C20.4537 15.7939 20.6736 15.6662 20.9296 15.5101C21.1856 15.3541 22.0816 14.8127 22.9208 14.3072C23.7599 13.8017 24.7383 13.211 25.095 12.9947C25.4516 12.7784 26.3871 12.2145 27.1738 11.7416C27.9605 11.2688 28.7563 10.7875 28.9421 10.672C29.1279 10.5566 29.2851 10.4675 29.2915 10.4741C29.2978 10.4807 29.364 10.6685 29.4385 10.8914C29.7331 11.7719 29.9825 12.9317 30.0903 13.9217C30.1802 14.7475 30.1801 14.7423 30.1666 15.8325C30.1572 16.5934 30.1333 17.0137 30.0732 17.4731ZM18.3435 14.6847L20.0314 15.6313C20.2045 15.7283 20.3461 15.8205 20.3461 15.8361C20.3461 15.8517 20.2731 15.9067 20.1839 15.9583C20.0948 16.01 19.67 16.2608 19.2399 16.5158C18.2262 17.1167 17.0903 17.7896 16.1121 18.3687C15.682 18.6233 14.9697 19.0455 14.5291 19.3071C12.7937 20.3375 12.4539 20.5329 12.4334 20.5121C12.3962 20.4744 12.4096 11.3932 12.4469 11.3932C12.4661 11.3932 12.5991 11.4604 12.7425 11.5425C12.886 11.6246 13.8959 12.1919 14.9868 12.8031C16.0777 13.4143 17.5882 14.261 18.3435 14.6847Z" fill="#2E335B"/>
</svg>
