<svg width="28" height="28" viewBox="0 0 28 28" fill="none" xmlns="http://www.w3.org/2000/svg">
<path d="M16.625 22.75V17.5C16.625 17.2679 16.5328 17.0454 16.3687 16.8813C16.2046 16.7172 15.9821 16.625 15.75 16.625H12.25C12.0179 16.625 11.7954 16.7172 11.6313 16.8813C11.4672 17.0454 11.375 17.2679 11.375 17.5V22.75C11.375 22.9821 11.2828 23.2046 11.1187 23.3687C10.9546 23.5328 10.7321 23.625 10.5 23.625H5.25C5.01794 23.625 4.79538 23.5328 4.63128 23.3687C4.46719 23.2046 4.375 22.9821 4.375 22.75V12.6328C4.37696 12.5117 4.40313 12.3922 4.45197 12.2814C4.50081 12.1706 4.57133 12.0707 4.65937 11.9875L13.4094 4.03594C13.5707 3.88837 13.7814 3.80653 14 3.80653C14.2186 3.80653 14.4293 3.88837 14.5906 4.03594L23.3406 11.9875C23.4287 12.0707 23.4992 12.1706 23.548 12.2814C23.5969 12.3922 23.623 12.5117 23.625 12.6328V22.75C23.625 22.9821 23.5328 23.2046 23.3687 23.3687C23.2046 23.5328 22.9821 23.625 22.75 23.625H17.5C17.2679 23.625 17.0454 23.5328 16.8813 23.3687C16.7172 23.2046 16.625 22.9821 16.625 22.75Z" fill="#2E335B" fill-opacity="0.3" stroke="#2E335B" stroke-width="1.5" stroke-linecap="round" stroke-linejoin="round"/>
</svg>
