<svg width="28" height="28" viewBox="0 0 28 28" fill="none" xmlns="http://www.w3.org/2000/svg">
<path d="M24.0625 19.1735V8.82658C24.0617 8.6708 24.0198 8.518 23.941 8.38358C23.8623 8.24916 23.7495 8.13788 23.6141 8.06095L14.4266 2.86564C14.2969 2.79076 14.1498 2.75134 14 2.75134C13.8502 2.75134 13.7031 2.79076 13.5734 2.86564L4.38594 8.06095C4.25048 8.13788 4.13769 8.24916 4.05896 8.38358C3.98023 8.518 3.93834 8.6708 3.9375 8.82658V19.1735C3.93834 19.3292 3.98023 19.482 4.05896 19.6165C4.13769 19.7509 4.25048 19.8622 4.38594 19.9391L13.5734 25.1344C13.7031 25.2093 13.8502 25.2487 14 25.2487C14.1498 25.2487 14.2969 25.2093 14.4266 25.1344L23.6141 19.9391C23.7495 19.8622 23.8623 19.7509 23.941 19.6165C24.0198 19.482 24.0617 19.3292 24.0625 19.1735V19.1735Z" stroke="#2E335B" stroke-width="1.5" stroke-linecap="round" stroke-linejoin="round"/>
<path d="M14 17.9375C16.1746 17.9375 17.9375 16.1746 17.9375 14C17.9375 11.8254 16.1746 10.0625 14 10.0625C11.8254 10.0625 10.0625 11.8254 10.0625 14C10.0625 16.1746 11.8254 17.9375 14 17.9375Z" stroke="#2E335B" stroke-width="1.5" stroke-linecap="round" stroke-linejoin="round"/>
</svg>
