<svg width="75" height="30" viewBox="0 0 75 30" fill="none" xmlns="http://www.w3.org/2000/svg">
<path opacity="0.3" d="M0.5 15C0.5 11.7003 0.500818 9.26943 0.723533 7.38527C0.944942 5.51215 1.37969 4.24455 2.20242 3.24205C2.51408 2.86229 2.86229 2.51408 3.24205 2.20242C4.24455 1.37969 5.51215 0.944942 7.38527 0.723533C9.26943 0.500818 11.7003 0.5 15 0.5H60C63.2997 0.5 65.7306 0.500818 67.6147 0.723533C69.4879 0.944942 70.7554 1.37969 71.7579 2.20242C72.1377 2.51408 72.4859 2.8623 72.7976 3.24205C73.6203 4.24455 74.0551 5.51215 74.2765 7.38527C74.4992 9.26943 74.5 11.7003 74.5 15C74.5 18.2997 74.4992 20.7306 74.2765 22.6147C74.0551 24.4879 73.6203 25.7554 72.7976 26.7579C72.4859 27.1377 72.1377 27.4859 71.7579 27.7976C70.7554 28.6203 69.4879 29.0551 67.6147 29.2765C65.7306 29.4992 63.2997 29.5 60 29.5H15C11.7003 29.5 9.26943 29.4992 7.38527 29.2765C5.51215 29.0551 4.24455 28.6203 3.24205 27.7976C2.86229 27.4859 2.51408 27.1377 2.20242 26.7579C1.37969 25.7554 0.944942 24.4879 0.723533 22.6147C0.500818 20.7306 0.5 18.2997 0.5 15Z" stroke="#2E335B"/>
</svg>
