<svg width="118" height="30" viewBox="0 0 118 30" fill="none" xmlns="http://www.w3.org/2000/svg">
<path opacity="0.3" d="M0.5 15C0.5 11.7003 0.500818 9.26943 0.723533 7.38527C0.944942 5.51215 1.37969 4.24455 2.20242 3.24205C2.51408 2.86229 2.86229 2.51408 3.24205 2.20242C4.24455 1.37969 5.51215 0.944942 7.38527 0.723533C9.26943 0.500818 11.7003 0.5 15 0.5H103C106.3 0.5 108.731 0.500818 110.615 0.723533C112.488 0.944942 113.755 1.37969 114.758 2.20242L115.073 1.8182L114.758 2.20242C115.138 2.51408 115.486 2.86229 115.798 3.24205C116.62 4.24455 117.055 5.51215 117.276 7.38527C117.499 9.26943 117.5 11.7003 117.5 15C117.5 18.2997 117.499 20.7306 117.276 22.6147C117.055 24.4879 116.62 25.7554 115.798 26.7579C115.486 27.1377 115.138 27.4859 114.758 27.7976C113.755 28.6203 112.488 29.0551 110.615 29.2765C108.731 29.4992 106.3 29.5 103 29.5H15C11.7003 29.5 9.26943 29.4992 7.38527 29.2765C5.51215 29.0551 4.24455 28.6203 3.24205 27.7976C2.86229 27.4859 2.51408 27.1377 2.20242 26.7579C1.37969 25.7554 0.944942 24.4879 0.723533 22.6147C0.500818 20.7306 0.5 18.2997 0.5 15Z" stroke="#2E335B"/>
</svg>
