<svg width="28" height="28" viewBox="0 0 28 28" fill="none" xmlns="http://www.w3.org/2000/svg">
<path d="M17.3579 17.8828L14.8204 24.8609C14.7582 25.0284 14.6463 25.1728 14.4997 25.2748C14.353 25.3768 14.1787 25.4314 14.0001 25.4314C13.8214 25.4314 13.6471 25.3768 13.5005 25.2748C13.3538 25.1728 13.2419 25.0284 13.1797 24.8609L10.6422 17.8828C10.5979 17.7625 10.528 17.6533 10.4374 17.5627C10.3468 17.472 10.2375 17.4021 10.1172 17.3578L3.13912 14.8203C2.97166 14.7581 2.82724 14.6462 2.72525 14.4996C2.62327 14.353 2.5686 14.1786 2.5686 14C2.5686 13.8214 2.62327 13.647 2.72525 13.5004C2.82724 13.3538 2.97166 13.2418 3.13912 13.1797L10.1172 10.6422C10.2375 10.5979 10.3468 10.528 10.4374 10.4373C10.528 10.3467 10.5979 10.2375 10.6422 10.1172L13.1797 3.13906C13.2419 2.9716 13.3538 2.82718 13.5005 2.72519C13.6471 2.62321 13.8214 2.56854 14.0001 2.56854C14.1787 2.56854 14.353 2.62321 14.4997 2.72519C14.6463 2.82718 14.7582 2.9716 14.8204 3.13906L17.3579 10.1172C17.4022 10.2375 17.4721 10.3467 17.5627 10.4373C17.6534 10.528 17.7626 10.5979 17.8829 10.6422L24.861 13.1797C25.0284 13.2418 25.1729 13.3538 25.2749 13.5004C25.3768 13.647 25.4315 13.8214 25.4315 14C25.4315 14.1786 25.3768 14.353 25.2749 14.4996C25.1729 14.6462 25.0284 14.7581 24.861 14.8203L17.8829 17.3578C17.7626 17.4021 17.6534 17.472 17.5627 17.5627C17.4721 17.6533 17.4022 17.7625 17.3579 17.8828V17.8828Z" stroke="#2E335B" stroke-width="1.5" stroke-linecap="round" stroke-linejoin="round"/>
</svg>
